<svg xmlns="http://www.w3.org/2000/svg" xmlns:xlink="http://www.w3.org/1999/xlink" width="1302" zoomAndPan="magnify" viewBox="0 0 976.5 800.24998" height="1067" preserveAspectRatio="xMidYMid meet" version="1.0"><defs><g/><clipPath id="35426b777f"><path d="M 378.503906 473.585938 L 597.429688 473.585938 L 597.429688 544.988281 L 378.503906 544.988281 Z M 378.503906 473.585938 " clip-rule="nonzero"/></clipPath><clipPath id="5048ace05d"><path d="M 0.503906 0.585938 L 219.429688 0.585938 L 219.429688 71.988281 L 0.503906 71.988281 Z M 0.503906 0.585938 " clip-rule="nonzero"/></clipPath><clipPath id="e427eabf23"><rect x="0" width="220" y="0" height="72"/></clipPath></defs><g clip-path="url(#35426b777f)"><g transform="matrix(1, 0, 0, 1, 378, 473)"><g clip-path="url(#e427eabf23)"><g clip-path="url(#5048ace05d)"><path fill="#b7e4c7" d="M 0.503906 0.585938 L 219.453125 0.585938 L 219.453125 71.988281 L 0.503906 71.988281 Z M 0.503906 0.585938 " fill-opacity="1" fill-rule="nonzero"/></g></g></g></g><g fill="#000000" fill-opacity="1"><g transform="translate(387.551453, 524.258654)"><g><path d="M 134.875 0 C 134.207031 -2.332031 133.539062 -4.492188 132.875 -6.484375 C 132.207031 -8.484375 131.625 -10.984375 131.125 -13.984375 C 130.625 -16.984375 130.289062 -20.8125 130.125 -25.46875 C 129.957031 -30.132812 129.875 -35.960938 129.875 -42.953125 L 129.875 -97.90625 C 129.875 -114.226562 127.039062 -125.71875 121.375 -132.375 C 115.71875 -139.03125 106.5625 -142.359375 93.90625 -142.359375 L 74.9375 -142.359375 L 74.9375 0 L 19.984375 0 L 19.984375 -349.671875 L 102.90625 -349.671875 C 131.539062 -349.671875 152.269531 -343.007812 165.09375 -329.6875 C 177.914062 -316.363281 184.328125 -296.21875 184.328125 -269.25 L 184.328125 -241.765625 C 184.328125 -205.804688 172.335938 -182.164062 148.359375 -170.84375 C 162.347656 -165.175781 171.921875 -155.929688 177.078125 -143.109375 C 182.242188 -130.296875 184.828125 -114.726562 184.828125 -96.40625 L 184.828125 -42.453125 C 184.828125 -33.796875 185.160156 -26.21875 185.828125 -19.71875 C 186.492188 -13.226562 188.160156 -6.65625 190.828125 0 Z M 74.9375 -299.71875 L 74.9375 -192.3125 L 96.40625 -192.3125 C 106.726562 -192.3125 114.800781 -194.972656 120.625 -200.296875 C 126.457031 -205.628906 129.375 -215.289062 129.375 -229.28125 L 129.375 -263.75 C 129.375 -276.40625 127.125 -285.5625 122.625 -291.21875 C 118.132812 -296.882812 111.0625 -299.71875 101.40625 -299.71875 Z M 74.9375 -299.71875 "/></g></g></g></svg>